name ./resultDataOpenSim/trcMotMarkerGrf/sub09/grf-13-08.mot
datacolumns 19
datarows 17
range 0.47600000 0.54000000
endheader

                time	     ground_force_vx	     ground_force_vy	     ground_force_vz	     ground_force_px	     ground_force_py	     ground_force_pz	   l_ground_force_vx	   l_ground_force_vy	   l_ground_force_vz	   l_ground_force_px	   l_ground_force_py	   l_ground_force_pz	     ground_torque_x	     ground_torque_y	     ground_torque_z	   l_ground_torque_x	   l_ground_torque_y	   l_ground_torque_z	
          0.47600000	         21.99738938	        383.49884884	        -18.37093688	         -0.68046584	          0.00000000	          0.05625786	          0.00000000	          0.00000000	          0.00000000	          0.00000000	          0.00000000	          0.00000000	          0.00000000	          3.27235950	          0.00000000	          0.00000000	          0.00000000	          0.00000000	
          0.48000000	         25.02149839	        389.57555193	        -21.64639444	         -0.67909310	          0.00000000	          0.05720165	          0.00000000	          0.00000000	          0.00000000	          0.00000000	          0.00000000	          0.00000000	          0.00000000	          3.17507067	          0.00000000	          0.00000000	          0.00000000	          0.00000000	
          0.48400000	         28.36360520	        396.05322209	        -24.23931490	         -0.67780369	          0.00000000	          0.05806647	          0.00000000	          0.00000000	          0.00000000	          0.00000000	          0.00000000	          0.00000000	          0.00000000	          3.19274268	          0.00000000	          0.00000000	          0.00000000	          0.00000000	
          0.48800000	         31.80328569	        402.96024576	        -25.98106752	         -0.67657714	          0.00000000	          0.05883599	          0.00000000	          0.00000000	          0.00000000	          0.00000000	          0.00000000	          0.00000000	          0.00000000	          3.35438669	          0.00000000	          0.00000000	          0.00000000	          0.00000000	
          0.49200000	         35.13557835	        410.30485418	        -26.84788577	         -0.67537014	          0.00000000	          0.05951238	          0.00000000	          0.00000000	          0.00000000	          0.00000000	          0.00000000	          0.00000000	          0.00000000	          3.66826465	          0.00000000	          0.00000000	          0.00000000	          0.00000000	
          0.49600000	         38.23022459	        418.07247058	        -26.96505118	         -0.67412150	          0.00000000	          0.06011484	          0.00000000	          0.00000000	          0.00000000	          0.00000000	          0.00000000	          0.00000000	          0.00000000	          4.11945859	          0.00000000	          0.00000000	          0.00000000	          0.00000000	
          0.50000000	         41.05409035	        426.26822046	        -26.57329304	         -0.67277319	          0.00000000	          0.06067474	          0.00000000	          0.00000000	          0.00000000	          0.00000000	          0.00000000	          0.00000000	          0.00000000	          4.67185814	          0.00000000	          0.00000000	          0.00000000	          0.00000000	
          0.50400000	         43.65342484	        434.97106668	        -25.96689531	         -0.67133781	          0.00000000	          0.06122559	          0.00000000	          0.00000000	          0.00000000	          0.00000000	          0.00000000	          0.00000000	          0.00000000	          5.27419862	          0.00000000	          0.00000000	          0.00000000	          0.00000000	
          0.50800000	         46.13112124	        444.27323165	        -25.44097165	         -0.66991948	          0.00000000	          0.06178422	          0.00000000	          0.00000000	          0.00000000	          0.00000000	          0.00000000	          0.00000000	          0.00000000	          5.86890141	          0.00000000	          0.00000000	          0.00000000	          0.00000000	
          0.51200000	         48.62581957	        454.10510027	        -25.26377659	         -0.66854255	          0.00000000	          0.06238396	          0.00000000	          0.00000000	          0.00000000	          0.00000000	          0.00000000	          0.00000000	          0.00000000	          6.40187734	          0.00000000	          0.00000000	          0.00000000	          0.00000000	
          0.51600000	         51.25493263	        464.19844656	        -25.64515620	         -0.66704330	          0.00000000	          0.06309134	          0.00000000	          0.00000000	          0.00000000	          0.00000000	          0.00000000	          0.00000000	          0.00000000	          6.83123012	          0.00000000	          0.00000000	          0.00000000	          0.00000000	
          0.52000000	         54.05925641	        474.31395455	        -26.68772082	         -0.66521999	          0.00000000	          0.06396051	          0.00000000	          0.00000000	          0.00000000	          0.00000000	          0.00000000	          0.00000000	          0.00000000	          7.13296952	          0.00000000	          0.00000000	          0.00000000	          0.00000000	
          0.52400000	         57.02059373	        484.47708265	        -28.35781097	         -0.66311027	          0.00000000	          0.06497024	          0.00000000	          0.00000000	          0.00000000	          0.00000000	          0.00000000	          0.00000000	          0.00000000	          7.30249020	          0.00000000	          0.00000000	          0.00000000	          0.00000000	
          0.52800000	         60.09986474	        494.94025571	        -30.51783924	         -0.66095273	          0.00000000	          0.06604297	          0.00000000	          0.00000000	          0.00000000	          0.00000000	          0.00000000	          0.00000000	          0.00000000	          7.35172883	          0.00000000	          0.00000000	          0.00000000	          0.00000000	
          0.53200000	         63.22299848	        505.93857437	        -32.99175562	         -0.65893331	          0.00000000	          0.06710876	          0.00000000	          0.00000000	          0.00000000	          0.00000000	          0.00000000	          0.00000000	          0.00000000	          7.30324150	          0.00000000	          0.00000000	          0.00000000	          0.00000000	
          0.53600000	         66.27385063	        517.51262257	        -35.60541046	         -0.65702442	          0.00000000	          0.06813483	          0.00000000	          0.00000000	          0.00000000	          0.00000000	          0.00000000	          0.00000000	          0.00000000	          7.18322784	          0.00000000	          0.00000000	          0.00000000	          0.00000000	
          0.54000000	         69.15695201	        529.55781119	        -38.20639735	         -0.65506744	          0.00000000	          0.06910639	          0.00000000	          0.00000000	          0.00000000	          0.00000000	          0.00000000	          0.00000000	          0.00000000	          7.01539894	          0.00000000	          0.00000000	          0.00000000	          0.00000000	
